<?xml version="1.0" encoding="UTF-8"?>
<svg xmlns="http://www.w3.org/2000/svg" version="1.1" viewBox="0 0 750 500">
  <defs>
    <style>
      .cls-1 {
        fill: #e8505b;
      }

      .cls-1, .cls-2, .cls-3, .cls-4, .cls-5, .cls-6, .cls-7, .cls-8, .cls-9 {
        stroke-width: 0px;
      }

      .cls-2 {
        fill: #ffbe9d;
      }

      .cls-3 {
        fill: #eb996e;
      }

      .cls-4 {
        fill: #455a64;
      }

      .cls-5 {
        fill: #263238;
      }

      .cls-6 {
        fill: #7e1c30;
      }

      .cls-10 {
        opacity: .4;
      }

      .cls-11 {
        opacity: .8;
      }

      .cls-7 {
        fill: #d51f45;
      }

      .cls-8 {
        fill: #ebebeb;
      }

      .cls-9 {
        fill: #fff;
      }

      .cls-12 {
        display: none;
      }
    </style>
  </defs>
  <g id="Background_Simple" data-name="Background Simple" class="cls-12">
    <path class="cls-8" d="M247,60.8c-7.9-6.5-20.9-5.5-27.9,2.1h0c-6,5.3-4.2,20.4,3.3,27.5,7.5,7,20.9,6,27.4-1.9s5.1-21.1-2.9-27.6Z"/>
    <path class="cls-8" d="M428.2,74.6c8.3,3.4,17.2-4.5,26.1-3.6,4.5.5,8.5,3.2,12.7,4.9,4.2,1.7,12.6,2.2,14.3-3.5,3.9-6.9-2.5-15.1-8.6-19.8-6.1-4.7-17.1-6.2-24.8-6.6-5.5-.3-11.2.2-16.2,2.6s-9.2,6.8-10.3,12.3c-1.1,5.4,1.7,11.6,6.8,13.7Z"/>
    <circle class="cls-8" cx="123.1" cy="136.2" r="47.7" transform="translate(-21.1 22.6) rotate(-9.7)"/>
    <path class="cls-8" d="M195.3,359.8c-18.1-22-37.7-34.1-55.9-35.7-19.5-1.3-40.7,6.8-50.4,23.8-9.7,17-3.3,42.6,15,49.4,7.5,2.8,16.2,2.5,23.1,6.6,10.7,6.5,12.9,21.1,21,30.7,10,11.7,28.8,13.7,42.1,6.1,13.4-7.6,21.1-23.3,21.2-38.7.2-15.4-6.5-30.3-16.2-42.2Z"/>
    <circle class="cls-8" cx="675.5" cy="267.4" r="49.4" transform="translate(-5.8 15.1) rotate(-1.3)"/>
  </g>
  <g id="Speech_Bubble" data-name="Speech Bubble">
    <g>
      <g>
        <path class="cls-1" d="M548.4,312.2c-6.3-35.2-36.6-66-72.3-68.9-19.4-1.6-39,4.5-58.4,2.2-16.3-2-31.7-10.1-42.5-22.4-16-18.2-21.4-44.1-38.3-61.4-23.3-23.9-64.1-24.3-92.5-6.7-28.4,17.6-45.6,49.3-53.4,81.7l-.3,9.9c-1.7,33.7,7.1,72.8,26.7,102.8,19.8,30.4,32.8,42.9,68.9,64.8,30.6,18.6,90.6,26.7,126.4,27.6,35.8.9,72.6-9.8,99.5-33.4,26.9-23.6,42.6-60.9,36.3-96.1Z"/>
        <g class="cls-11">
          <path class="cls-9" d="M548.4,312.2c-6.3-35.2-36.6-66-72.3-68.9-19.4-1.6-39,4.5-58.4,2.2-16.3-2-31.7-10.1-42.5-22.4-16-18.2-21.4-44.1-38.3-61.4-23.3-23.9-64.1-24.3-92.5-6.7-28.4,17.6-45.6,49.3-53.4,81.7l-.3,9.9c-1.7,33.7,7.1,72.8,26.7,102.8,19.8,30.4,32.8,42.9,68.9,64.8,30.6,18.6,90.6,26.7,126.4,27.6,35.8.9,72.6-9.8,99.5-33.4,26.9-23.6,42.6-60.9,36.3-96.1Z"/>
        </g>
      </g>
      <g>
        <path class="cls-1" d="M445.4,302.8c.3,34.4-7.2,60.8-22.5,79-15.3,18.2-36.4,27.4-63,27.7-26.8.3-48.1-8.6-63.9-26.5-15.8-17.9-23.9-44.1-24.2-78.5l-.6-60.6c-.3-34.3,7.2-60.6,22.5-79,15.3-18.3,36.4-27.6,63.2-27.9,26.7-.3,47.9,8.6,63.7,26.7s23.9,44.2,24.2,78.5l.6,60.6ZM400.6,235.9c-.2-21.7-4-37.7-11.4-48-7.4-10.3-18-15.5-32-15.3-13.9.1-24.5,5.4-31.6,15.9-7.1,10.5-10.6,26.6-10.4,48.3l.7,73.6c.2,21.8,4,37.9,11.5,48.3,7.4,10.4,18.1,15.5,32.1,15.4,13.9-.1,24.4-5.4,31.5-15.9,7.1-10.5,10.5-26.7,10.3-48.6l-.7-73.6Z"/>
        <g class="cls-10">
          <path class="cls-6" d="M445.4,302.8c.3,34.4-7.2,60.8-22.5,79-15.3,18.2-36.4,27.4-63,27.7-26.8.3-48.1-8.6-63.9-26.5-15.8-17.9-23.9-44.1-24.2-78.5l-.6-60.6c-.3-34.3,7.2-60.6,22.5-79,15.3-18.3,36.4-27.6,63.2-27.9,26.7-.3,47.9,8.6,63.7,26.7s23.9,44.2,24.2,78.5l.6,60.6ZM400.6,235.9c-.2-21.7-4-37.7-11.4-48-7.4-10.3-18-15.5-32-15.3-13.9.1-24.5,5.4-31.6,15.9-7.1,10.5-10.6,26.6-10.4,48.3l.7,73.6c.2,21.8,4,37.9,11.5,48.3,7.4,10.4,18.1,15.5,32.1,15.4,13.9-.1,24.4-5.4,31.5-15.9,7.1-10.5,10.5-26.7,10.3-48.6l-.7-73.6Z"/>
        </g>
        <path class="cls-7" d="M470.8,302.6c.3,34.4-7.2,60.8-22.5,79-15.3,18.2-36.4,27.4-63,27.7-26.8.3-48.1-8.6-63.9-26.5-15.8-17.9-23.9-44.1-24.2-78.5l-.6-60.6c-.3-34.3,7.2-60.6,22.5-79,15.3-18.3,36.4-27.6,63.2-27.9,26.7-.3,47.9,8.6,63.7,26.7,15.8,18,23.9,44.2,24.2,78.5l.6,60.6ZM426,235.7c-.2-21.7-4-37.7-11.4-48-7.4-10.3-18-15.5-32-15.3-13.9.1-24.5,5.4-31.6,15.9-7.1,10.5-10.6,26.6-10.4,48.3l.7,73.6c.2,21.8,4,37.9,11.5,48.3,7.4,10.4,18.1,15.5,32.1,15.4,13.9-.1,24.4-5.4,31.5-15.9,7.1-10.5,10.5-26.7,10.3-48.6l-.7-73.6Z"/>
        <path class="cls-1" d="M296.8,247.3c0,.1-5.9,2.5-13.2,5.2-7.3,2.8-13.3,4.9-13.4,4.8,0-.1,5.9-2.5,13.2-5.2,7.3-2.8,13.3-4.9,13.4-4.8Z"/>
        <path class="cls-1" d="M298.2,271.2c0,.1-5.9,2.5-13.2,5.2-7.3,2.8-13.3,4.9-13.4,4.8,0-.1,5.9-2.5,13.2-5.2,7.3-2.8,13.3-4.9,13.4-4.8Z"/>
        <path class="cls-1" d="M299.7,295.1c0,.1-5.9,2.5-13.2,5.2-7.3,2.8-13.3,4.9-13.4,4.8,0-.1,5.9-2.5,13.2-5.2,7.3-2.8,13.3-4.9,13.4-4.8Z"/>
        <path class="cls-1" d="M301.2,319.1c0,.1-5.9,2.5-13.2,5.2-7.3,2.8-13.3,4.9-13.4,4.8,0-.1,5.9-2.5,13.2-5.2,7.3-2.8,13.3-4.9,13.4-4.8Z"/>
        <path class="cls-1" d="M302.7,343s-.3.2-.9.5c-.6.3-1.5.6-2.6,1.1-2.2.9-5.2,2-8.5,3.3-3.3,1.3-6.4,2.4-8.6,3.1-1.1.4-2,.7-2.6.9-.6.2-1,.3-1,.3,0,0,.3-.2.9-.5.6-.3,1.5-.6,2.6-1.1,2.2-.9,5.2-2,8.5-3.3,3.3-1.3,6.4-2.4,8.6-3.1,1.1-.4,2-.7,2.6-.9.6-.2,1-.3,1-.3Z"/>
        <path class="cls-1" d="M309.5,364.9c0,0-1.1.6-3,1.3-1.9.8-4.5,1.8-7.4,2.9-2.9,1.1-5.6,2.1-7.5,2.7-1.9.7-3.1,1.1-3.2,1,0,0,1.1-.6,3-1.3,1.9-.8,4.5-1.8,7.4-2.9,2.9-1.1,5.6-2.1,7.5-2.7,1.9-.7,3.1-1.1,3.2-1Z"/>
        <path class="cls-1" d="M324.1,385c0,0-1,.5-2.7,1.2-1.7.7-4,1.6-6.6,2.6-2.6,1-5,1.8-6.7,2.4s-2.8.9-2.8.9c0,0,1-.5,2.7-1.2,1.7-.7,4-1.6,6.6-2.6,2.6-1,5-1.8,6.7-2.4,1.7-.6,2.8-.9,2.8-.9Z"/>
        <path class="cls-1" d="M348.4,398.1c0,0-1,.5-2.7,1.2s-4,1.6-6.6,2.6c-2.6,1-5,1.8-6.7,2.4-1.7.6-2.8.9-2.8.9s1-.5,2.7-1.2c1.7-.7,4-1.6,6.6-2.6,2.6-1,5-1.8,6.7-2.4,1.7-.6,2.8-.9,2.8-.9Z"/>
        <path class="cls-1" d="M421.7,347.1c0,.1-7.5,3.7-17,7.9-9.4,4.2-17.1,7.6-17.2,7.4,0-.1,7.5-3.7,17-7.9,9.4-4.2,17.1-7.6,17.2-7.4Z"/>
        <path class="cls-1" d="M426.7,326.6c0,.1-6.2,3.1-14,6.6-7.8,3.5-14.2,6.2-14.2,6.1,0-.1,6.2-3.1,14-6.6,7.8-3.5,14.1-6.2,14.2-6.1Z"/>
        <path class="cls-1" d="M429,303.5c0,.1-6.2,3.1-14,6.6-7.8,3.5-14.2,6.2-14.2,6.1,0-.1,6.2-3.1,14-6.6,7.8-3.5,14.1-6.2,14.2-6.1Z"/>
        <path class="cls-1" d="M431.3,280.5c0,.1-6.2,3.1-14,6.6-7.8,3.5-14.2,6.2-14.2,6.1,0-.1,6.2-3.1,14-6.6,7.8-3.5,14.1-6.2,14.2-6.1Z"/>
        <path class="cls-1" d="M433.6,257.5c0,.1-6.2,3.1-14,6.6-7.8,3.5-14.2,6.2-14.2,6.1,0-.1,6.2-3.1,14-6.6,7.8-3.5,14.1-6.2,14.2-6.1Z"/>
        <path class="cls-1" d="M429,237c0,.1-6.2,3.1-14,6.6-7.8,3.5-14.2,6.2-14.2,6.1,0-.1,6.2-3.1,14-6.6,7.8-3.5,14.1-6.2,14.2-6.1Z"/>
        <path class="cls-1" d="M429,214.9c0,.1-6.2,3.1-14,6.6-7.8,3.5-14.2,6.2-14.2,6.1,0-.1,6.2-3.1,14-6.6,7.8-3.5,14.1-6.2,14.2-6.1Z"/>
        <path class="cls-1" d="M426.7,194.1c0,.1-6.2,3.1-14,6.6-7.8,3.5-14.2,6.2-14.2,6.1,0-.1,6.2-3.1,14-6.6,7.8-3.5,14.1-6.2,14.2-6.1Z"/>
        <path class="cls-1" d="M407,179.6c0,.1-3.7,2-8.5,4.1-4.7,2.1-8.6,3.8-8.7,3.6,0-.1,3.7-2,8.5-4.1,4.7-2.1,8.6-3.7,8.7-3.6Z"/>
        <path class="cls-1" d="M396.4,170.7c0,.1-3.7,2-8.5,4.1-4.7,2.1-8.6,3.7-8.7,3.6,0-.1,3.7-2,8.5-4.1,4.7-2.1,8.6-3.7,8.7-3.6Z"/>
        <path class="cls-1" d="M297.9,218.3c0,.1-5.9,2.5-13.2,5.2-7.3,2.8-13.3,4.9-13.4,4.8s5.9-2.5,13.2-5.2c7.3-2.8,13.3-4.9,13.4-4.8Z"/>
        <path class="cls-1" d="M305.3,188.4c0,.1-6.4,2.7-14.3,5.7-8,3-14.5,5.3-14.5,5.2,0-.1,6.4-2.7,14.3-5.7,8-3,14.5-5.3,14.5-5.2Z"/>
        <path class="cls-1" d="M324.5,158.9c0,.1-8.1,3.3-18.2,7.1-10.1,3.8-18.3,6.7-18.3,6.6,0-.1,8.1-3.3,18.2-7.1,10.1-3.8,18.3-6.7,18.3-6.6Z"/>
        <path class="cls-9" d="M466.5,347.4s-.1,0-.4-.1c-.3-.1-.7-.3-1.2-.5-.5-.2-1.2-.3-2-.6-.8-.1-1.8-.3-2.8-.3-4.3-.3-10.7,1.3-16.9,5.9-3.1,2.2-6.1,5.3-8.9,8.8-2.9,3.5-5.7,7.5-8.9,11.5-3.2,4-6.9,8-11.5,11.2-4.6,3.1-10.1,5.4-15.9,6.5-5.8,1.1-11.8.8-17.2-.6-5.4-1.3-10.4-3.4-15.1-5.6-4.6-2.2-9-4.3-13.1-6.2-4.1-1.8-8.2-3.2-11.9-4.1-3.8-.9-7.2-1.2-10.3-1.2-3.1,0-5.7.5-7.8,1.1-2.1.6-3.6,1.3-4.6,1.8-.5.3-.9.5-1.1.6-.3.1-.4.2-.4.2,0,0,.1,0,.4-.2.3-.2.6-.4,1.1-.7,1-.6,2.5-1.2,4.6-1.9,2.1-.6,4.7-1.1,7.8-1.2,3.1,0,6.6.3,10.4,1.1,3.8.9,7.8,2.2,12,4,4.2,1.8,8.5,4,13.2,6.1,4.6,2.1,9.6,4.2,15,5.5,5.4,1.3,11.2,1.6,17,.6,5.8-1,11.2-3.3,15.7-6.4,4.6-3.1,8.2-7.1,11.4-11,3.2-4,6-7.9,8.9-11.5,2.9-3.5,5.9-6.6,9-8.9,6.3-4.6,12.8-6.2,17.1-5.8,1.1,0,2,.3,2.9.4.8.2,1.5.4,2,.6.5.2.9.4,1.2.5.3.1.4.2.4.2Z"/>
        <path class="cls-9" d="M472.8,280.7c0,0-.7.1-1.9.6-1.2.4-2.9,1.2-4.8,2.6-1.9,1.3-4,3.2-6.4,5.1-2.4,1.9-5.4,3.7-8.6,5.3-6.5,3.1-13,4.3-17.7,4.6-1.2,0-2.2,0-3.2,0-.9,0-1.7,0-2.4-.1-.6,0-1.1-.1-1.5-.2-.3,0-.5,0-.5,0,0,0,.2,0,.5,0,.4,0,.9,0,1.5,0,.7,0,1.5,0,2.4,0,.9,0,2,0,3.1-.2,4.6-.3,11.1-1.6,17.5-4.7,3.2-1.5,6.1-3.3,8.5-5.2,2.4-1.9,4.5-3.7,6.5-5,1.9-1.3,3.7-2.1,5-2.5.6-.2,1.1-.3,1.5-.3.3,0,.5,0,.5,0Z"/>
        <path class="cls-9" d="M342.2,303.8s-.2,0-.5,0c-.4,0-.9-.2-1.6-.3-1.3-.4-3.2-1.1-5.4-2.3-2.1-1.2-4.5-3-7-5.1-2.5-2.1-5.2-4.4-8.3-6.6-3.1-2.1-6.3-3.6-9.5-4.3-3.1-.8-6.1-.9-8.5-.8-2.4.1-4.4.5-5.7.9-1.3.3-2,.6-2.1.5,0,0,.2,0,.5-.2.3-.1.8-.3,1.5-.5,1.3-.4,3.3-.9,5.8-1,2.5-.2,5.5,0,8.6.7,3.2.7,6.6,2.2,9.7,4.4,3.1,2.2,5.8,4.5,8.3,6.6,2.5,2.1,4.8,3.9,6.9,5.2,2.1,1.3,3.9,2,5.2,2.5,1.3.4,2.1.6,2,.6Z"/>
        <path class="cls-9" d="M342.4,209.3s-.6.2-1.7.6c-.5.2-1.2.4-2,.6-.8.2-1.7.5-2.7.6-1,.2-2.1.4-3.3.6-1.2.2-2.5.3-3.8.4-2.7.2-5.7.2-8.8-.1-3.1-.3-6-.9-8.7-1.5-1.3-.4-2.5-.7-3.7-1.1-1.1-.4-2.2-.8-3.1-1.2-1-.4-1.8-.8-2.5-1.1-.7-.3-1.4-.7-1.9-1-1-.6-1.5-.9-1.5-.9,0,0,.6.2,1.6.7.5.3,1.1.6,1.9.9.7.3,1.6.7,2.5,1.1.9.4,2,.8,3.1,1.1,1.1.4,2.4.7,3.7,1.1,2.6.6,5.5,1.2,8.6,1.5,3.1.3,6,.3,8.7.1,1.3-.1,2.6-.2,3.8-.4,1.2-.1,2.3-.3,3.3-.5,1-.2,1.9-.4,2.7-.6.8-.2,1.5-.3,2-.5,1.1-.3,1.7-.4,1.7-.4Z"/>
        <path class="cls-9" d="M467.2,209.1s-.2,0-.4-.2c-.3-.2-.7-.4-1.2-.7-.5-.3-1.1-.7-1.9-1-.7-.4-1.6-.8-2.5-1.2-.5-.2-1-.4-1.5-.6-.5-.2-1.1-.4-1.7-.6-1.1-.4-2.4-.7-3.7-1.1-2.7-.6-5.7-1-8.8-1-3.2,0-6.2.3-8.8.9-1.3.3-2.6.6-3.8,1-.6.2-1.1.3-1.7.5-.5.2-1,.4-1.5.6-1,.3-1.8.8-2.6,1.1-.8.3-1.4.7-1.9,1-.5.3-.9.5-1.2.6-.3.1-.4.2-.4.2,0,0,.1-.1.4-.3.3-.2.7-.4,1.1-.7.5-.3,1.1-.7,1.8-1.1.7-.4,1.6-.9,2.5-1.2.5-.2,1-.4,1.5-.6.5-.2,1.1-.4,1.7-.6,1.2-.4,2.4-.7,3.8-1,2.7-.6,5.8-.9,9-.9,3.2,0,6.2.5,8.9,1.1,1.3.4,2.6.7,3.8,1.1.6.2,1.1.4,1.7.6.5.2,1,.5,1.5.7,1,.4,1.8.9,2.5,1.3.7.4,1.3.8,1.8,1.1.4.3.8.5,1.1.8.3.2.4.3.4.3Z"/>
        <path class="cls-9" d="M406,141.1s-.2.2-.7.4c-.5.3-1.2.7-2.1,1.1-1.8,1-4.5,2.4-7.9,4.1-6.7,3.3-16.1,7.8-27.3,10.7-5.6,1.4-11,2.1-16,2.2-5,.1-9.5-.3-13.1-1.1-3.7-.8-6.6-1.8-8.5-2.6-1-.4-1.7-.8-2.2-1-.5-.2-.8-.4-.7-.4,0,0,.3,0,.8.3.5.2,1.2.6,2.2.9,1.9.8,4.8,1.7,8.5,2.4,3.7.7,8.1,1.1,13,1,4.9-.1,10.3-.9,15.9-2.2,11.1-2.8,20.5-7.3,27.2-10.5,3.3-1.6,6-3,8-3.9.9-.4,1.6-.8,2.2-1.1.5-.2.8-.4.8-.3Z"/>
      </g>
      <g>
        <path class="cls-1" d="M205.3,315.4l33.4,1.5-1.5,35.4-33.4-1.5-2.6,58.9-44-1.9,2.6-58.9-113.6-5v-27c0,0,121.1-173.8,121.1-173.8l45.4,2-7.4,170.2ZM90.3,310.3l71,3.1,4.7-107.4-1.1-.4-4,7.7-70.7,97Z"/>
        <g class="cls-10">
          <path class="cls-6" d="M205.3,315.4l33.4,1.5-1.5,35.4-33.4-1.5-2.6,58.9-44-1.9,2.6-58.9-113.6-5v-27c0,0,121.1-173.8,121.1-173.8l45.4,2-7.4,170.2ZM90.3,310.3l71,3.1,4.7-107.4-1.1-.4-4,7.7-70.7,97Z"/>
        </g>
        <path class="cls-7" d="M233.2,316.6l33.4,1.5-1.5,35.4-33.4-1.5-2.6,58.9-44-1.9,2.6-58.9-113.6-5v-27c0,0,121.1-173.8,121.1-173.8l45.4,2-7.4,170.2ZM118.2,311.6l71,3.1,4.7-107.4-1.1-.4-4,7.7-70.7,97Z"/>
        <g>
          <path class="cls-1" d="M74.8,323.3s-.4.2-1.1.6c-.7.4-1.7.9-3,1.5-2.6,1.2-6.2,2.8-10.2,4.5-4,1.7-7.7,3.1-10.3,4.1-1.3.5-2.4.9-3.2,1.2-.8.3-1.2.4-1.2.4,0,0,.4-.2,1.1-.5.8-.4,1.9-.8,3.1-1.3,2.7-1.1,6.3-2.6,10.3-4.3,3.9-1.7,7.5-3.2,10.2-4.4,1.2-.5,2.3-1,3.1-1.3.7-.3,1.2-.5,1.2-.4Z"/>
          <path class="cls-1" d="M91.1,293.3s-.5.3-1.5.8c-1,.5-2.4,1.2-4.2,2-3.6,1.6-8.5,3.8-14,6.1-5.5,2.3-10.5,4.4-14.2,5.8-1.8.7-3.3,1.3-4.3,1.6-1,.4-1.6.6-1.6.5,0,0,.5-.3,1.5-.7,1.1-.5,2.5-1.1,4.3-1.8,3.7-1.5,8.6-3.6,14.1-5.9,5.5-2.3,10.4-4.4,14.1-6,1.7-.7,3.2-1.4,4.3-1.8,1-.4,1.6-.6,1.6-.6Z"/>
          <path class="cls-1" d="M111,266.6s-.5.3-1.6.8c-1,.5-2.5,1.2-4.4,2-3.7,1.6-8.9,3.8-14.6,6.1-5.7,2.3-11,4.4-14.8,5.8-1.9.7-3.4,1.3-4.5,1.6-1.1.4-1.7.6-1.7.5,0,0,.6-.3,1.6-.7,1.1-.5,2.6-1.1,4.5-1.8,3.8-1.5,9-3.6,14.7-5.9,5.7-2.3,10.9-4.4,14.7-6,1.8-.7,3.3-1.4,4.5-1.8,1.1-.4,1.6-.6,1.7-.6Z"/>
          <path class="cls-1" d="M190.6,297.5s-.4.2-1.1.6c-.7.3-1.8.8-3,1.4-2.6,1.2-6.2,2.7-10.2,4.3-4,1.6-7.7,3-10.3,4-1.3.5-2.4.9-3.2,1.1-.8.2-1.2.4-1.2.3s.4-.2,1.1-.5c.8-.3,1.9-.8,3.1-1.3,2.7-1.1,6.3-2.5,10.3-4.1,3.9-1.6,7.5-3.1,10.2-4.2,1.2-.5,2.3-.9,3.1-1.3.7-.3,1.2-.4,1.2-.4Z"/>
          <path class="cls-1" d="M187.3,352.4s-.4.2-1.1.6c-.7.3-1.7.8-2.9,1.4-2.5,1.2-6,2.7-9.9,4.3-3.9,1.6-7.4,3-10,4-1.3.5-2.3.9-3.1,1.1-.7.2-1.1.4-1.2.3,0,0,.4-.2,1.1-.5.8-.3,1.8-.8,3-1.3,2.7-1.1,6.1-2.5,10-4.1,3.8-1.6,7.3-3.1,9.9-4.2,1.2-.5,2.2-.9,3-1.3.7-.3,1.1-.4,1.1-.4Z"/>
          <path class="cls-1" d="M186.9,371.7s-.4.2-1.1.6c-.7.3-1.7.8-2.9,1.4-2.5,1.2-6,2.7-9.9,4.3-3.9,1.6-7.4,3-10,4-1.3.5-2.3.9-3.1,1.1-.7.2-1.1.4-1.2.3s.4-.2,1.1-.5c.8-.3,1.8-.8,3-1.3,2.7-1.1,6.1-2.5,10-4.1,3.8-1.6,7.3-3.1,9.9-4.2,1.2-.5,2.2-.9,3-1.3.7-.3,1.1-.4,1.1-.4Z"/>
          <path class="cls-1" d="M186.4,390.9s-.4.2-1.1.6c-.7.3-1.7.8-2.9,1.4-2.5,1.2-6,2.7-9.9,4.3-3.9,1.6-7.4,3-10,4-1.3.5-2.3.9-3.1,1.1-.7.2-1.1.4-1.2.3,0,0,.4-.2,1.1-.5.8-.3,1.8-.8,3-1.3,2.7-1.1,6.1-2.5,10-4.1,3.8-1.6,7.3-3.1,9.9-4.2,1.2-.5,2.2-.9,3-1.3.7-.3,1.1-.4,1.1-.4Z"/>
          <path class="cls-1" d="M191.1,277.1s-.4.2-1.1.6c-.7.3-1.8.8-3,1.4-2.6,1.2-6.2,2.7-10.2,4.3-4,1.6-7.7,3-10.3,4-1.3.5-2.4.9-3.2,1.1-.8.2-1.2.4-1.2.3s.4-.2,1.1-.5c.8-.3,1.9-.8,3.1-1.3,2.7-1.1,6.3-2.5,10.3-4.1,3.9-1.6,7.5-3.1,10.2-4.2,1.2-.5,2.3-.9,3.1-1.3.7-.3,1.2-.4,1.2-.4Z"/>
          <path class="cls-1" d="M191.6,256.8s-.4.2-1.1.6c-.7.3-1.8.8-3,1.4-2.6,1.2-6.2,2.7-10.2,4.3-4,1.6-7.7,3-10.3,4-1.3.5-2.4.9-3.2,1.1-.8.2-1.2.4-1.2.3,0,0,.4-.2,1.1-.5.8-.3,1.9-.8,3.1-1.3,2.7-1.1,6.3-2.5,10.3-4.1,3.9-1.6,7.5-3.1,10.2-4.2,1.2-.5,2.3-.9,3.1-1.3.7-.3,1.2-.4,1.2-.4Z"/>
          <path class="cls-1" d="M192.1,236.5s-.4.2-1,.6c-.7.3-1.7.8-2.9,1.4-2.5,1.1-5.9,2.6-9.7,4.2-3.8,1.5-7.3,2.9-9.9,3.8-1.3.5-2.3.8-3,1-.7.2-1.1.3-1.1.3,0,0,.4-.2,1.1-.5.8-.3,1.8-.7,3-1.2,2.6-1,6-2.4,9.8-3.9,3.8-1.5,7.1-2.9,9.8-4,1.2-.5,2.2-.9,3-1.2.7-.3,1.1-.4,1.1-.4Z"/>
          <path class="cls-1" d="M194.4,217.4c0,.1-2.2,1.1-5,2.1-2.8,1-5.1,1.8-5.2,1.6,0-.1,2.2-1.1,5-2.1,2.8-1,5.1-1.8,5.2-1.6Z"/>
          <path class="cls-1" d="M130.8,239s-.5.3-1.6.8c-1,.5-2.5,1.2-4.4,2-3.7,1.6-8.9,3.8-14.6,6.1-5.7,2.3-11,4.4-14.8,5.8-1.9.7-3.4,1.3-4.5,1.6-1.1.4-1.7.6-1.7.5,0,0,.6-.3,1.6-.7,1.1-.5,2.6-1.1,4.5-1.8,3.8-1.5,9-3.6,14.7-5.9,5.7-2.3,10.9-4.4,14.7-6,1.8-.7,3.3-1.4,4.5-1.8,1.1-.4,1.6-.6,1.7-.6Z"/>
          <path class="cls-1" d="M150.6,211.3s-.5.3-1.6.8c-1,.5-2.5,1.2-4.4,2-3.7,1.6-8.9,3.8-14.6,6.1-5.7,2.3-11,4.4-14.8,5.8-1.9.7-3.4,1.3-4.5,1.6-1.1.4-1.7.6-1.7.5,0,0,.6-.3,1.6-.7,1.1-.5,2.6-1.1,4.5-1.8,3.8-1.5,9-3.6,14.7-5.9,5.7-2.3,10.9-4.4,14.7-6,1.8-.7,3.3-1.4,4.5-1.8,1.1-.4,1.6-.6,1.7-.6Z"/>
          <path class="cls-1" d="M169,183.6s-.5.3-1.6.8c-1,.5-2.5,1.2-4.4,2-3.7,1.6-8.9,3.8-14.6,6.1-5.7,2.3-11,4.4-14.8,5.8-1.9.7-3.4,1.3-4.5,1.6-1.1.4-1.7.6-1.7.5s.6-.3,1.6-.7c1.1-.5,2.6-1.1,4.5-1.8,3.8-1.5,9-3.6,14.7-5.9,5.7-2.3,10.9-4.4,14.7-6,1.8-.7,3.3-1.4,4.5-1.8,1.1-.4,1.6-.6,1.7-.6Z"/>
          <path class="cls-1" d="M188,157s-.5.3-1.6.8c-1,.5-2.5,1.2-4.4,2-3.7,1.6-8.9,3.8-14.6,6.1-5.7,2.3-11,4.4-14.8,5.8-1.9.7-3.4,1.3-4.5,1.6-1.1.4-1.7.6-1.7.5s.6-.3,1.6-.7c1.1-.5,2.6-1.1,4.5-1.8,3.8-1.5,9-3.6,14.7-5.9,5.7-2.3,10.9-4.4,14.7-6,1.8-.7,3.3-1.4,4.5-1.8,1.1-.4,1.6-.6,1.7-.6Z"/>
          <path class="cls-9" d="M238.7,197.6s-.2.2-.6.7c-.4.4-1,1-1.8,1.8-1.6,1.4-4.2,3.4-7.8,5-3.6,1.6-8.2,2.9-13.4,3-2.6,0-5.3-.2-8.1-.9-2.8-.7-5.5-1.8-8.2-3.1-5.4-2.6-10.2-5.7-14.8-7.9-4.6-2.2-9.2-3.3-13.1-3.4-3.9-.1-7,.7-8.9,1.7-1,.5-1.7.9-2.2,1.2-.5.3-.7.5-.7.5,0,0,.2-.2.7-.6.4-.4,1.2-.8,2.1-1.3,1.9-1,5.1-2,9-1.9,3.9,0,8.6,1.2,13.3,3.4,4.7,2.1,9.5,5.2,14.9,7.8,2.7,1.3,5.4,2.4,8.1,3,2.7.7,5.4,1,8,.9,5.1,0,9.7-1.3,13.2-2.9,3.5-1.6,6.1-3.4,7.8-4.8.9-.7,1.5-1.3,1.9-1.7.4-.4.6-.6.7-.6Z"/>
          <path class="cls-9" d="M224.7,148.2s-.4.3-1.3.7c-.8.5-2.1,1-3.6,1.7-1.6.7-3.5,1.4-5.6,2-2.1.6-4.5,1.2-7.1,1.6-2.6.4-5,.6-7.2.7-2.2,0-4.3,0-5.9-.1-1.7-.1-3-.3-4-.5-.9-.2-1.4-.3-1.4-.3,0,0,.5,0,1.5,0,.9.1,2.3.2,4,.3,1.7,0,3.7,0,5.9,0,2.2-.1,4.7-.3,7.2-.7,2.5-.4,4.9-1,7-1.6,2.1-.6,4-1.3,5.6-1.9,1.6-.6,2.8-1.1,3.7-1.5.9-.4,1.3-.6,1.4-.6Z"/>
          <path class="cls-9" d="M153.8,259.3s-.3-.3-.9-1c-.6-.7-1.4-1.7-2.4-2.8-2-2.4-4.9-5.5-8.4-8.8-1.7-1.6-3.5-3-5.2-4-1.8-1-3.5-1.7-5-1.9-3-.6-5,0-5,0,0,0,.1,0,.3-.1.2,0,.6-.2,1-.2.9-.1,2.2-.2,3.7,0,1.6.3,3.4.9,5.2,1.9,1.8,1,3.6,2.4,5.4,4.1,3.5,3.2,6.3,6.5,8.3,8.9,1,1.2,1.7,2.2,2.2,2.9.5.7.8,1.1.7,1.1Z"/>
          <path class="cls-9" d="M233.5,289.5s-.1.1-.4.3c-.3.2-.7.5-1.2.8-1,.6-2.6,1.5-4.7,2.2-4.1,1.6-10.3,2.7-16.9,1.3-6.6-1.4-11.9-4.8-15-7.9-1.6-1.5-2.7-2.9-3.4-3.9-.4-.5-.6-.9-.8-1.2-.2-.3-.3-.4-.2-.4,0,0,.4.5,1.2,1.5.8,1,1.9,2.3,3.5,3.7,3.2,2.9,8.4,6.3,14.9,7.6,6.5,1.3,12.6.3,16.7-1.2,2-.7,3.6-1.5,4.7-2.1,1.1-.6,1.7-.9,1.7-.9Z"/>
          <path class="cls-9" d="M262.7,352.8s-.1-.2-.3-.5c-.2-.3-.5-.8-.8-1.4-.6-1.2-1.8-3-3.4-5.1-.4-.5-.9-1-1.4-1.6-.2-.3-.5-.6-.7-.9-.3-.3-.6-.5-.8-.8-.6-.6-1.2-1.2-1.8-1.8-.7-.6-1.4-1.1-2.1-1.7-3-2.3-6.6-4.7-11-6.5-4.4-1.8-9.5-3.2-15-3.5-5.6-.3-11.6.5-17.4,2.8-5.8,2.3-11.5,5.8-17.5,9.1-3,1.7-6.1,3.3-9.4,4.7-3.3,1.3-6.8,2.4-10.4,2.7-3.6.4-7.3,0-10.8-.7-3.5-.7-6.8-2-9.9-3.4-6.3-2.9-11.8-6.6-16.9-10.3-5.1-3.7-10-7.2-14.8-10-4.8-2.8-9.6-5-14.2-6.1-4.6-1.1-9-1.3-12.7-.8-3.8.4-6.9,1.5-9.2,2.7-2.4,1.2-4,2.6-5,3.4-.5.5-.9.9-1.1,1.1-.3.3-.4.4-.4.4,0,0,.1-.1.4-.4.3-.3.6-.7,1.1-1.2,1.1-.9,2.6-2.3,5-3.6,2.4-1.2,5.5-2.3,9.3-2.8,3.8-.5,8.2-.3,12.8.8,4.7,1.1,9.5,3.3,14.4,6.1,4.9,2.8,9.7,6.3,14.9,10,5.1,3.6,10.6,7.4,16.8,10.2,3.1,1.4,6.4,2.6,9.8,3.4,3.4.7,7,1.1,10.6.6,3.6-.4,7-1.4,10.3-2.7,3.3-1.3,6.4-3,9.3-4.6,6-3.3,11.6-6.8,17.5-9.1,1.5-.5,3-1.1,4.5-1.4.7-.2,1.5-.4,2.2-.6.8-.1,1.5-.2,2.2-.4,3-.5,5.9-.5,8.7-.4,5.6.3,10.8,1.7,15.2,3.6,4.4,1.9,8.1,4.3,11,6.6.7.6,1.4,1.2,2.1,1.8.6.6,1.2,1.2,1.8,1.8.3.3.6.6.8.8.2.3.5.6.7.9.5.6.9,1.1,1.3,1.6,1.6,2.1,2.7,3.9,3.4,5.1.3.6.6,1.1.8,1.4.2.3.2.5.2.5Z"/>
          <path class="cls-9" d="M232.4,394.6s-.2,0-.5.1c-.4,0-.9.2-1.5.3-.6.1-1.4.3-2.4.3-.9,0-2,.2-3.1.3-.6,0-1.2,0-1.8,0-.6,0-1.3,0-2,0-1.4,0-2.8-.1-4.4-.3-3.1-.3-6.4-.9-9.9-1.9-3.4-1-6.6-2.3-9.4-3.7-1.4-.7-2.7-1.4-3.8-2.1-.6-.4-1.2-.7-1.7-1.1-.5-.4-1-.7-1.5-1.1-1-.6-1.8-1.3-2.5-1.9-.7-.6-1.3-1.1-1.8-1.6-.4-.4-.8-.8-1.1-1-.2-.2-.4-.4-.4-.4s.2,0,.4.3c.3.3.7.6,1.2,1,.5.4,1.1.9,1.8,1.5.7.5,1.6,1.2,2.5,1.8.5.3,1,.7,1.5,1,.5.4,1.1.7,1.7,1,1.2.7,2.5,1.4,3.8,2.1,2.8,1.3,5.9,2.6,9.3,3.6,3.4,1,6.7,1.6,9.8,1.9,1.5.1,3,.3,4.3.3.7,0,1.3,0,2,0,.6,0,1.2,0,1.8,0,1.2,0,2.2-.1,3.1-.2.9,0,1.7-.2,2.4-.3.6,0,1.1-.1,1.5-.2.3,0,.5,0,.5,0Z"/>
        </g>
      </g>
      <g>
        <path class="cls-1" d="M639.5,315.8l33.3-3.3,3.5,35.3-33.3,3.3,5.7,58.6-43.8,4.3-5.7-58.6-113.1,11.1-3.7-26.7,95.3-189.1,45.2-4.4,16.6,169.6ZM525,327l70.8-6.9-10.5-107-1.1-.3-2.9,8.1-56.3,106Z"/>
        <g class="cls-10">
          <path class="cls-6" d="M639.5,315.8l33.3-3.3,3.5,35.3-33.3,3.3,5.7,58.6-43.8,4.3-5.7-58.6-113.1,11.1-3.7-26.7,95.3-189.1,45.2-4.4,16.6,169.6ZM525,327l70.8-6.9-10.5-107-1.1-.3-2.9,8.1-56.3,106Z"/>
        </g>
        <path class="cls-7" d="M667.4,313.1l33.3-3.3,3.5,35.3-33.3,3.3,5.7,58.6-43.8,4.3-5.7-58.6-113.1,11.1-3.7-26.7,95.3-189.1,45.2-4.4,16.6,169.6ZM552.8,324.3l70.8-6.9-10.5-107-1.1-.3-2.9,8.1-56.3,106Z"/>
        <g>
          <path class="cls-1" d="M511.5,342s-.3.3-1,.8c-.7.5-1.6,1.1-2.8,1.9-2.4,1.6-5.7,3.7-9.4,5.9-3.7,2.2-7.1,4.2-9.6,5.6-1.2.7-2.3,1.2-3,1.6-.7.4-1.1.5-1.1.5,0,0,.3-.3,1-.7.8-.5,1.7-1,2.9-1.7,2.5-1.5,5.9-3.5,9.6-5.7,3.7-2.2,7-4.2,9.5-5.8,1.1-.7,2.1-1.3,2.9-1.7.7-.4,1.1-.6,1.1-.6Z"/>
          <path class="cls-1" d="M523.4,310s-.5.4-1.4,1c-.9.6-2.2,1.5-3.9,2.5-3.3,2.1-7.9,5-13,8-5.1,3.1-9.8,5.8-13.2,7.7-1.7,1-3.1,1.7-4.1,2.2-1,.5-1.5.8-1.5.7,0,0,.5-.4,1.4-.9,1-.6,2.4-1.4,4-2.4,3.4-2.1,8-4.8,13.1-7.9,5.1-3.1,9.7-5.8,13.1-7.9,1.6-1,3-1.8,4-2.4.9-.6,1.5-.9,1.5-.8Z"/>
          <path class="cls-1" d="M539.3,280.8s-.5.4-1.4,1c-1,.6-2.3,1.5-4.1,2.6-3.5,2.1-8.3,5-13.6,8.1-5.4,3.1-10.3,5.9-13.8,7.8-1.8,1-3.2,1.7-4.2,2.3-1,.5-1.6.8-1.6.8,0,0,.5-.4,1.5-.9,1.1-.6,2.5-1.4,4.2-2.4,3.6-2.1,8.4-4.9,13.7-7.9,5.3-3.1,10.1-5.9,13.7-8,1.7-1,3.1-1.8,4.2-2.4,1-.6,1.5-.9,1.6-.8Z"/>
          <path class="cls-1" d="M622.4,300.1s-.3.3-1,.7c-.7.4-1.6,1.1-2.8,1.8-2.4,1.5-5.7,3.6-9.5,5.7-3.7,2.2-7.2,4.1-9.7,5.4-1.3.7-2.3,1.2-3,1.5-.7.4-1.1.5-1.1.5,0,0,.4-.3,1-.7.8-.5,1.8-1,2.9-1.7,2.6-1.5,5.9-3.4,9.6-5.5,3.7-2.2,7-4.1,9.5-5.6,1.2-.7,2.1-1.2,2.9-1.7.7-.4,1.1-.6,1.1-.6Z"/>
          <path class="cls-1" d="M627,355s-.3.3-1,.7c-.6.4-1.6,1.1-2.7,1.8-2.3,1.5-5.5,3.5-9.2,5.7-3.6,2.2-6.9,4-9.4,5.3-1.2.7-2.2,1.2-2.9,1.5-.7.3-1.1.5-1.1.5,0,0,.3-.3,1-.7.8-.5,1.7-1,2.8-1.7,2.5-1.5,5.7-3.4,9.3-5.5,3.6-2.1,6.8-4.1,9.2-5.6,1.1-.7,2.1-1.2,2.8-1.7.7-.4,1-.6,1.1-.6Z"/>
          <path class="cls-1" d="M629.2,374.1s-.3.3-1,.7c-.6.4-1.6,1.1-2.7,1.8-2.3,1.5-5.5,3.5-9.2,5.7-3.6,2.2-6.9,4-9.4,5.3-1.2.7-2.2,1.2-2.9,1.5-.7.3-1.1.5-1.1.5s.3-.3,1-.7c.8-.5,1.7-1,2.8-1.7,2.5-1.5,5.7-3.4,9.3-5.5,3.6-2.1,6.8-4.1,9.2-5.6,1.1-.7,2.1-1.2,2.8-1.7.7-.4,1-.6,1.1-.6Z"/>
          <path class="cls-1" d="M631.5,393.2s-.3.3-1,.7c-.6.4-1.6,1.1-2.7,1.8-2.3,1.5-5.5,3.5-9.2,5.7-3.6,2.2-6.9,4-9.4,5.3-1.2.7-2.2,1.2-2.9,1.5-.7.3-1.1.5-1.1.5,0,0,.3-.3,1-.7.8-.5,1.7-1,2.8-1.7,2.5-1.5,5.7-3.4,9.3-5.5,3.6-2.1,6.8-4.1,9.2-5.6,1.1-.7,2.1-1.2,2.8-1.7.7-.4,1-.6,1.1-.6Z"/>
          <path class="cls-1" d="M620.1,279.9s-.3.3-1,.7c-.7.4-1.6,1.1-2.8,1.8-2.4,1.5-5.7,3.6-9.5,5.7-3.7,2.2-7.2,4.1-9.7,5.4-1.3.7-2.3,1.2-3,1.5-.7.4-1.1.5-1.1.5s.4-.3,1-.7c.8-.5,1.8-1,2.9-1.7,2.6-1.5,5.9-3.4,9.6-5.5,3.7-2.2,7-4.1,9.5-5.6,1.2-.7,2.1-1.2,2.9-1.7.7-.4,1.1-.6,1.1-.6Z"/>
          <path class="cls-1" d="M617.8,259.7s-.3.3-1,.7c-.7.4-1.6,1.1-2.8,1.8-2.4,1.5-5.7,3.6-9.5,5.7-3.7,2.2-7.2,4.1-9.7,5.4-1.3.7-2.3,1.2-3,1.5-.7.4-1.1.5-1.1.5,0,0,.4-.3,1-.7.8-.5,1.8-1,2.9-1.7,2.6-1.5,5.9-3.4,9.6-5.5,3.7-2.2,7-4.1,9.5-5.6,1.2-.7,2.1-1.2,2.9-1.7.7-.4,1.1-.6,1.1-.6Z"/>
          <path class="cls-1" d="M615.4,239.5s-.3.3-.9.7c-.6.4-1.5,1-2.7,1.7-2.3,1.4-5.5,3.4-9,5.5-3.6,2.1-6.8,3.9-9.2,5.1-1.2.6-2.2,1.1-2.8,1.5-.7.3-1.1.5-1.1.5,0,0,.3-.3,1-.6.7-.4,1.7-1,2.8-1.6,2.4-1.4,5.6-3.2,9.1-5.2,3.5-2.1,6.7-3.9,9.1-5.3,1.1-.6,2-1.2,2.8-1.6.7-.4,1-.6,1.1-.5Z"/>
          <path class="cls-1" d="M615,220.4c0,.1-2,1.4-4.7,2.8-2.6,1.4-4.8,2.5-4.9,2.4,0-.1,2-1.4,4.7-2.8,2.6-1.4,4.8-2.5,4.9-2.4Z"/>
          <path class="cls-1" d="M555.1,250.6s-.5.4-1.4,1c-1,.6-2.3,1.5-4.1,2.6-3.5,2.1-8.3,5-13.6,8.1-5.4,3.1-10.3,5.9-13.8,7.8-1.8,1-3.2,1.7-4.2,2.3-1,.5-1.6.8-1.6.8,0,0,.5-.4,1.5-.9,1.1-.6,2.5-1.4,4.2-2.4,3.6-2.1,8.4-4.9,13.7-7.9,5.3-3.1,10.1-5.9,13.7-8,1.7-1,3.1-1.8,4.2-2.4,1-.6,1.5-.9,1.6-.8Z"/>
          <path class="cls-1" d="M570.8,220.4s-.5.4-1.4,1c-1,.6-2.3,1.5-4.1,2.6-3.5,2.1-8.3,5-13.6,8.1-5.4,3.1-10.3,5.9-13.8,7.8-1.8,1-3.2,1.7-4.2,2.3-1,.5-1.6.8-1.6.8,0,0,.5-.4,1.5-.9,1.1-.6,2.5-1.4,4.2-2.4,3.6-2.1,8.4-4.9,13.7-7.9,5.3-3.1,10.1-5.9,13.7-8,1.7-1,3.1-1.8,4.2-2.4,1-.6,1.5-.9,1.6-.8Z"/>
          <path class="cls-1" d="M585.1,190.4s-.5.4-1.4,1c-1,.6-2.3,1.5-4.1,2.6-3.5,2.1-8.3,5-13.6,8.1-5.4,3.1-10.3,5.9-13.8,7.8-1.8,1-3.2,1.7-4.2,2.3-1,.5-1.6.8-1.6.8,0,0,.5-.4,1.5-.9,1.1-.6,2.5-1.4,4.2-2.4,3.6-2.1,8.4-4.9,13.7-7.9,5.3-3.1,10.1-5.9,13.7-8,1.7-1,3.1-1.8,4.2-2.4,1-.6,1.5-.9,1.6-.8Z"/>
          <path class="cls-1" d="M600.2,161.4s-.5.4-1.4,1c-1,.6-2.3,1.5-4.1,2.6-3.5,2.1-8.3,5-13.6,8.1-5.4,3.1-10.3,5.9-13.8,7.8-1.8,1-3.2,1.7-4.2,2.3-1,.5-1.6.8-1.6.8,0,0,.5-.4,1.5-.9,1.1-.6,2.5-1.4,4.2-2.4,3.6-2.1,8.4-4.9,13.7-7.9,5.3-3.1,10.1-5.9,13.7-8,1.7-1,3.1-1.8,4.2-2.4,1-.6,1.5-.9,1.6-.8Z"/>
          <path class="cls-9" d="M656,194.5s-.2.3-.5.7c-.3.5-.8,1.2-1.5,2-1.4,1.7-3.7,3.9-7,6.1-3.3,2.1-7.7,4-12.8,4.9-2.6.4-5.3.5-8.1.2-2.8-.3-5.7-1-8.5-1.9-5.7-1.8-10.9-4.2-15.8-5.7-4.9-1.5-9.6-2-13.4-1.5-3.9.4-6.8,1.7-8.6,2.9-.9.6-1.6,1.1-2,1.5-.4.4-.7.6-.7.6,0,0,.2-.2.6-.6.4-.4,1-1,1.9-1.6,1.8-1.3,4.8-2.6,8.7-3.1,3.9-.5,8.7,0,13.6,1.4,5,1.5,10.2,3.8,15.8,5.7,2.8.9,5.6,1.6,8.4,1.9,2.8.3,5.5.2,8-.2,5.1-.8,9.4-2.7,12.7-4.7,3.3-2.1,5.6-4.3,7-5.9.7-.8,1.3-1.5,1.6-1.9.4-.4.6-.7.6-.7Z"/>
          <path class="cls-9" d="M635.3,147.5s-.4.4-1.2.9c-.8.6-1.9,1.3-3.4,2.2-1.4.9-3.2,1.8-5.3,2.8-2,.9-4.3,1.8-6.8,2.6-2.5.8-4.9,1.3-7.1,1.7-2.2.4-4.2.6-5.9.7-1.7.1-3.1.1-4,.1-.9,0-1.5,0-1.5,0,0,0,.5,0,1.5-.1.9,0,2.3-.1,4-.3,1.7-.1,3.7-.4,5.8-.8,2.2-.4,4.6-1,7-1.7,2.4-.8,4.7-1.7,6.8-2.6,2-.9,3.8-1.8,5.3-2.7,1.5-.8,2.6-1.5,3.4-2,.8-.5,1.2-.8,1.3-.7Z"/>
          <path class="cls-9" d="M580.6,267.5s-.4-.3-1-.9c-.7-.6-1.6-1.5-2.7-2.5-2.3-2-5.6-4.8-9.5-7.5-1.9-1.3-3.9-2.5-5.8-3.3-1.9-.8-3.7-1.1-5.2-1.2-3.1-.2-4.9.8-4.9.7,0,0,0,0,.3-.2.2-.1.5-.2.9-.4.8-.3,2.1-.5,3.7-.5,1.6,0,3.5.4,5.4,1.1,1.9.8,3.9,1.9,5.9,3.3,3.9,2.7,7.2,5.5,9.5,7.6,1.1,1.1,2,2,2.6,2.6.6.6.9,1,.9,1Z"/>
          <path class="cls-9" d="M663.9,286.2s-.1.1-.3.4c-.2.2-.6.5-1.1.9-.9.8-2.4,1.8-4.3,2.9-3.8,2.1-9.8,4.1-16.6,3.7-6.8-.4-12.5-3.1-16-5.7-1.8-1.3-3.1-2.5-3.9-3.4-.4-.4-.7-.8-.9-1-.2-.2-.3-.4-.3-.4,0,0,.5.5,1.4,1.3.9.8,2.2,2,4,3.2,3.5,2.5,9.2,5.1,15.8,5.5,6.6.4,12.5-1.5,16.4-3.5,1.9-1,3.4-2,4.4-2.7,1-.7,1.5-1.1,1.5-1.1Z"/>
          <path class="cls-9" d="M701.6,344.8s-.1-.1-.3-.4c-.2-.3-.6-.7-1-1.3-.8-1.1-2.2-2.7-4.1-4.5-.5-.4-1-.9-1.6-1.4-.3-.2-.6-.5-.8-.8-.3-.2-.6-.5-1-.7-.7-.5-1.3-1-2-1.5-.7-.5-1.5-.9-2.3-1.4-3.3-1.9-7.2-3.7-11.8-4.9-4.6-1.2-9.8-1.8-15.4-1.3-5.6.5-11.4,2.2-16.9,5.2-5.5,3.1-10.6,7.3-16,11.5-2.7,2.1-5.6,4.1-8.6,5.9-3.1,1.8-6.4,3.3-10,4.2-3.6.9-7.2,1.1-10.8.9-3.6-.2-7-1-10.3-2-6.6-1.9-12.6-4.9-18.2-7.8-5.6-2.9-10.9-5.7-16.1-7.8-5.2-2.1-10.2-3.6-14.9-4-4.7-.4-9.1,0-12.7,1-3.7.9-6.6,2.4-8.8,3.9-2.2,1.5-3.6,3.1-4.5,4.1-.4.5-.7,1-1,1.3-.2.3-.3.4-.3.4,0,0,0-.2.3-.5.2-.3.5-.7.9-1.3.9-1.1,2.2-2.7,4.5-4.2,2.2-1.6,5.1-3.1,8.8-4.1,3.7-1,8-1.5,12.8-1,4.8.4,9.9,1.9,15.1,4,5.2,2.1,10.5,4.9,16.1,7.8,5.6,2.9,11.5,5.8,18.1,7.7,3.3,1,6.7,1.7,10.2,1.9,3.5.2,7.1,0,10.6-.9,3.5-.9,6.8-2.4,9.8-4.1,3-1.8,5.9-3.8,8.6-5.9,5.4-4.2,10.6-8.4,16.1-11.5,1.4-.7,2.8-1.5,4.2-2.1.7-.3,1.4-.6,2.1-.9.7-.2,1.4-.5,2.2-.7,2.9-.9,5.8-1.3,8.6-1.6,5.6-.5,10.9.2,15.5,1.4,4.6,1.2,8.6,3.1,11.8,5,.8.5,1.6,1,2.3,1.5.7.5,1.4,1,2,1.5.3.2.6.5,1,.7.3.3.6.5.8.8.5.5,1.1,1,1.6,1.4,1.9,1.9,3.3,3.5,4,4.6.4.6.7,1,.9,1.3.2.3.3.4.3.4Z"/>
          <path class="cls-9" d="M677.6,390.4s-.2,0-.5.2c-.4.1-.9.3-1.4.5-.6.2-1.4.5-2.3.7-.9.2-1.9.5-3.1.7-.6.1-1.2.2-1.8.3-.6.1-1.3.2-2,.3-1.4.2-2.8.3-4.4.4-3.1,0-6.5,0-10-.5-3.5-.5-6.8-1.4-9.8-2.3-1.5-.5-2.8-1-4.1-1.6-.6-.3-1.2-.5-1.8-.8-.6-.3-1.1-.6-1.6-.8-1.1-.5-1.9-1.1-2.7-1.5-.8-.5-1.5-.9-2-1.3-.5-.3-.9-.6-1.2-.9-.3-.2-.4-.3-.4-.3s.2,0,.5.2c.3.2.8.5,1.3.8.5.4,1.2.8,2,1.2.8.4,1.7,1,2.8,1.5.5.3,1.1.5,1.6.8.6.3,1.2.5,1.8.8,1.2.6,2.6,1,4.1,1.5,2.9.9,6.2,1.8,9.7,2.3,3.5.5,6.9.6,9.9.5,1.5,0,3-.1,4.3-.3.7,0,1.3-.1,2-.2.6-.1,1.2-.2,1.8-.3,1.2-.2,2.2-.4,3.1-.6.9-.2,1.7-.4,2.3-.6.6-.2,1.1-.3,1.4-.4.3,0,.5-.1.5-.1Z"/>
        </g>
      </g>
      <g>
        <g>
          <g>
            <path class="cls-4" d="M469.3,243.9l-7-1.1-43.4-14-25.4-7.3c-5.9-2-13.6-2.8-21.9,1.5-12,6.1-45.1,36.9-45.1,36.9l23.8,24.5-11.2,49.7c12.6,35.7,37.1,39.8,37.1,39.8,0,0,16.1,1.4,35.2-5.8,22.8-8.7,46.8-29.1,49.8-37.9,1.8-5.3,3.3-16.3,4.5-28.8l36.1-14.7,9.8-50-42.3,7.2Z"/>
            <path class="cls-5" d="M416.5,332.3s-.1.1-.4.3c-.2.2-.6.5-1.1.8-1,.7-2.4,1.5-4.3,2.3-3.8,1.6-9.7,2.9-16,1.5-6.3-1.4-11.2-5-13.9-8-1.4-1.5-2.4-2.9-3-3.9-.3-.5-.5-.9-.7-1.2-.1-.3-.2-.4-.2-.4,0,0,.4.5,1,1.5.6,1,1.6,2.3,3.1,3.8,2.8,3,7.6,6.4,13.8,7.8,6.2,1.3,12,.2,15.8-1.3,1.9-.8,3.4-1.6,4.4-2.2,1-.6,1.5-1,1.5-.9Z"/>
            <path class="cls-5" d="M402.8,230.9s0,0,0,.2c0,.2.1.4.2.7.2.6.4,1.5.6,2.7.5,2.4,1.2,5.9,1.4,10.2,0,2.2,0,4.6-.4,7.1-.5,2.5-1.4,5.2-2.8,7.7-1.5,2.5-3.6,4.8-5.9,6.9-2.4,2.1-5,4-7.6,6.1-5.6,4.2-11.1,8.1-16,11.5-4.9,3.5-9.2,6.6-12.7,9.2h-.1c0,0-.1,0-.1,0-3.1-2.5-5.4-4.7-6.9-6.2-.8-.8-1.3-1.5-1.6-1.9-.2-.2-.3-.4-.4-.5,0-.1-.1-.2-.1-.2,0,0,.2.2.5.7.4.4.9,1.1,1.7,1.8,1.5,1.5,3.9,3.7,7,6.1h-.2c3.4-2.7,7.7-5.8,12.6-9.3,4.9-3.5,10.4-7.3,16-11.6,2.6-2,5.2-4,7.6-6,2.3-2.1,4.4-4.3,5.9-6.7,1.5-2.4,2.4-5,2.8-7.5.5-2.5.5-4.9.5-7.1-.2-4.3-.8-7.8-1.3-10.2-.2-1.2-.4-2.1-.5-2.8,0-.3,0-.5-.1-.7,0-.2,0-.2,0-.2Z"/>
          </g>
          <g>
            <path class="cls-5" d="M591.2,253.4c10.2-8.7,13.6-24.4,8-36.5-4.8-.5-9.5-1-14.3-1.5,7.3-3.8,11.6-12.5,10.4-20.6-7.7,8.3-21.1,10.8-31.2,5.8-6.7-3.3-12.1-9.5-19.4-10.7-6.7-1.2-13.2,2-19.6,4.2-6.4,2.3-14.1,3.5-19.4-.7-4.2-3.4-5.5-9.2-5.2-14.6.3-5.4,1.8-10.6,2.2-15.9.6-10.5-3.9-21.1-11.6-28.2-2.4-7.6-8.2-14.2-15.6-17.3-8.9-3.8-19.9-2.3-27.5,3.6-3.1,2.4-5.8,5.5-9.3,7.3-4,2-8.7,2-13,3-4.3,1.1-8.9,3.9-9.4,8.4l-1.7,9.1c-.3.7-.6,1.3-1,1.9-3.7,6.5-11.2,10.7-12.9,18-.9,4.1.2,8.5-1.1,12.4-1.8,5.2-7.4,8.1-10,12.9-3.6,6.6-1.2,18.3,4.6,23.2,5.7,4.9,17.5,10.1,24.9,11.7,2-7.7,3.8-15.9,5.5-24.3,3,2.9,6.2,5.6,9.3,8.4,8.2,7.1,16.6,14.4,22.3,23.7,10.8,17.6,11,41,24.6,56.5,2.7,3.1,5.9,5.8,9.8,6.9,3.9,1.2,8.5.6,11.4-2.3,3.4-3.4,3.8-9.1,7.6-12,5-4,12.3-.8,17.6,2.6,3.9,2.5,7.8,5.1,12.2,6.5s9.5,1.3,13.2-1.4c3.7-2.7,5.4-8.4,2.7-12.1-1.1-1.5-2.7-2.5-3.8-4-1.1-1.5-1.4-3.9,0-5,1.6-1.2,3.9,0,5.6,1,8.5,5,19.4,6,28.7,2.5,9.3-3.5,16.9-11.3,20.1-20.7-4.9.8-10,.2-14.6-1.7Z"/>
            <path class="cls-5" d="M582.2,174.9s.5.3,1.3,1.1c.8.8,2,2,2.9,3.9.5.9.9,2.1,1.1,3.4.2,1.3.1,2.8-.5,4.2-.6,1.4-1.6,2.8-3.1,3.7-.7.5-1.6.8-2.5.9-.9.1-1.9,0-2.8-.4-3.7-1.5-5.6-5.8-9.6-7.7-3.9-2.1-8.9-2.2-13.7-1.1-4.9,1.1-9.5,3.7-14.2,6.4-4.7,2.6-9.8,5.5-15.6,6.5-2.9.5-5.8.6-8.6,0-1.4-.3-2.7-.8-4-1.5-1.2-.7-2.4-1.5-3.4-2.5-2-1.9-3.4-4.4-4.3-6.8-.9-2.5-1.5-5-1.8-7.5-.5-5-.1-9.8,0-14.2,0-4.4-.2-8.6-1.2-12.2-.5-1.8-1.2-3.5-1.9-5-.7-1.5-1.6-2.9-2.4-4.1-1.7-2.5-3.5-4.3-5.1-5.7-1.6-1.4-3-2.3-3.9-2.9-.5-.3-.8-.5-1.1-.6-.2-.1-.4-.2-.4-.2,0,0,.1,0,.4.2.3.1.6.3,1.1.6.9.6,2.4,1.4,4,2.8,1.6,1.4,3.5,3.2,5.2,5.7.9,1.2,1.7,2.6,2.5,4.1.8,1.5,1.5,3.2,2,5.1,1.1,3.7,1.4,7.9,1.3,12.3,0,4.5-.4,9.2.1,14.2.3,2.5.8,5,1.8,7.4.9,2.4,2.3,4.8,4.2,6.6,1,.9,2,1.8,3.2,2.4,1.2.6,2.5,1.1,3.8,1.4,2.7.6,5.6.6,8.4,0,5.7-1,10.7-3.8,15.4-6.4,4.7-2.6,9.4-5.3,14.4-6.4,2.5-.5,4.9-.8,7.3-.6,1.2,0,2.4.3,3.5.6,1.1.3,2.2.7,3.2,1.3,4.1,2,6,6.3,9.5,7.8,1.7.7,3.6.5,5-.4,1.4-.9,2.4-2.2,3-3.6.6-1.4.7-2.8.5-4-.2-1.3-.6-2.4-1-3.3-.9-1.9-2.1-3.1-2.8-3.9-.4-.4-.7-.7-.9-.9-.2-.2-.3-.3-.3-.3Z"/>
            <path class="cls-5" d="M418.8,232.6s0-.2,0-.5c0-.3,0-.7-.3-1.3-.3-1.1-1-2.8-2.5-4.5-1.5-1.7-3.7-3.3-6.6-4.6-2.9-1.3-6.5-2-10.4-2.7-3.9-.8-8.4-1.6-12.4-4.3-4-2.7-7.1-7.2-7.9-12.6-.8-5.3.9-11.3,5-15.5,4.1-4.2,10-6.4,14.8-10.1,1.2-1,2.3-2,3.1-3.2.8-1.2,1.5-2.5,1.9-4,.8-2.8.7-5.8,1-8.7.1-1.4.3-2.9.8-4.3.4-1.4,1.2-2.7,2.1-3.7,1.9-2.1,4.6-3.3,7.2-4,2.6-.7,5.1-1.2,7.5-1.9,2.4-.7,4.7-1.6,6.6-2.9,1.9-1.3,3.5-3,4.9-4.6,1.4-1.7,2.6-3.4,3.7-5.1,2.2-3.3,4.1-6.5,6.1-9,2-2.5,4-4.5,5.8-5.8,1.8-1.3,3.5-2,4.6-2.4,1.1-.4,1.8-.4,1.8-.4,0,0-.6.1-1.7.5-1.1.4-2.7,1.1-4.5,2.4-1.8,1.3-3.8,3.3-5.7,5.8-2,2.5-3.8,5.6-6,9-1.1,1.7-2.3,3.4-3.7,5.1-1.4,1.7-3,3.4-5,4.7-1.9,1.4-4.3,2.4-6.7,3-2.4.7-5,1.2-7.5,1.9-2.5.7-5.1,1.8-6.9,3.9-.9,1-1.6,2.2-2,3.6-.4,1.3-.6,2.7-.8,4.2-.3,2.9-.2,5.9-1,8.8-.4,1.5-1.1,2.9-2,4.1-.9,1.2-2,2.3-3.2,3.3-2.4,1.9-5.1,3.4-7.7,4.9-2.6,1.5-5,3.1-7,5.1-4,4.1-5.7,10-4.9,15.1.8,5.2,3.8,9.7,7.7,12.3,3.9,2.6,8.3,3.5,12.2,4.3,3.9.8,7.6,1.4,10.5,2.8,2.9,1.3,5.2,3,6.7,4.7,1.5,1.7,2.1,3.4,2.4,4.6.2.6.2,1,.2,1.3,0,.3,0,.5,0,.5Z"/>
            <path class="cls-4" d="M498.6,142.9s-.3,0-.8-.2c-.5-.2-1.2-.4-2-.8-1.7-.8-3.8-2-6-3.9-2.1-1.8-3.7-3.8-4.7-5.3-.5-.8-.9-1.4-1.1-1.9-.2-.5-.3-.7-.3-.7,0,0,.6.9,1.7,2.4,1.1,1.5,2.7,3.4,4.8,5.1,2.1,1.8,4.2,3.1,5.8,3.9,1.6.8,2.6,1.3,2.6,1.3Z"/>
            <path class="cls-4" d="M531.9,211.1s-.6-.2-1.8-.4c-1.1-.2-2.8-.5-4.9-.6-2.1,0-4.5,0-7.3.2-2.7.2-5.8.5-8.9.4-3.2,0-6.3-.6-8.8-1.7-2.6-1.1-4.6-2.7-5.9-4.3-1.3-1.6-2-3.2-2.3-4.4-.1-.6-.2-1-.2-1.3,0-.3,0-.5,0-.5,0,0,0,.6.4,1.7.3,1.1,1,2.6,2.4,4.2,1.3,1.5,3.3,3.1,5.8,4.1,2.5,1,5.5,1.5,8.7,1.6,3.2,0,6.2-.2,8.9-.4,2.7-.2,5.2-.2,7.3,0,2.1.1,3.8.5,4.9.8.6.2,1,.3,1.3.4.3.1.4.2.4.2Z"/>
            <path class="cls-4" d="M590.8,256.5s0,0-.3.1c-.2,0-.5.2-.9.3-.8.2-2.1.3-3.6-.2-1.5-.5-3.2-1.4-4.8-3-1.6-1.6-2.8-3.9-3.9-6.5-1.1-2.6-2-5.5-3.8-8.2-.8-1.4-2-2.6-3.2-3.9-1.3-1.2-2.7-2.3-4.2-3.2-6.3-3.8-14.5-5.3-23-4.8-8.5.4-16.4,2.1-23.8,2.6-7.4.7-14.1-.2-19.4-2-5.3-1.8-9-4.7-11.1-7-.6-.6-1-1.1-1.3-1.6-.4-.5-.7-.9-.9-1.2-.2-.3-.4-.6-.5-.8-.1-.2-.2-.3-.1-.3,0,0,0,0,.2.3.1.2.3.4.5.8.2.3.5.8.9,1.2.4.5.8,1,1.4,1.5,2.1,2.2,5.8,5,11.1,6.8,5.3,1.8,11.9,2.6,19.3,1.9,7.3-.5,15.3-2.2,23.8-2.7,8.5-.5,16.8,1.1,23.2,5,1.6.9,3,2.1,4.3,3.3,1.2,1.3,2.4,2.5,3.2,4,1.8,2.8,2.7,5.8,3.8,8.3,1,2.6,2.2,4.8,3.7,6.4,1.5,1.6,3.2,2.6,4.6,3,1.5.5,2.7.4,3.5.3.8-.1,1.2-.4,1.2-.3Z"/>
          </g>
          <g>
            <g>
              <g>
                <path class="cls-2" d="M433.5,142.9c-3.9,0-7.2,2.8-7.6,6.6h0l-8.1,84.2c-1.4,11.8,14.1,37.2,26.8,38.6h0c12.8,1.4,14.1-4.8,15.7-16,2.8-18.7,3.7-25.8,3.7-25.7,0,0,16.5-.6,22.6-21.2,3-10.3,4.8-27.5,5.7-41.7.9-12.7-5.5-29.4-18.2-29.7l-40.6,4.8Z"/>
                <g>
                  <path class="cls-5" d="M486.8,179c-.1,1.4-1.5,2.5-3,2.4-1.5-.1-2.6-1.4-2.5-2.8.1-1.4,1.5-2.5,3-2.4,1.5.1,2.6,1.4,2.5,2.8Z"/>
                  <path class="cls-5" d="M488,173.5c-.3.4-2.5-1-5.4-.8-2.9.2-5,1.8-5.3,1.5-.2-.1.1-.8,1-1.6.9-.7,2.4-1.5,4.2-1.6,1.8-.1,3.4.4,4.3,1.1.9.6,1.3,1.2,1.1,1.4Z"/>
                </g>
                <path class="cls-5" d="M461.1,180.5c-.3.3-2.4-1.2-5.3-1.3-2.9-.1-5.1,1.3-5.4,1-.2-.2.2-.8,1.2-1.5.9-.7,2.5-1.3,4.4-1.2,1.8,0,3.3.8,4.2,1.5.9.7,1.2,1.4,1,1.5Z"/>
                <path class="cls-5" d="M466.5,196c0-.2,1.9-.2,4.8-.2.8,0,1.5,0,1.7-.5.2-.5,0-1.4-.2-2.3-.5-1.9-.9-3.9-1.5-5.9-2-8.5-3.3-15.4-3-15.4.3,0,2.2,6.7,4.2,15.2.5,2.1.9,4.1,1.4,6,.2.9.5,1.9,0,3-.3.5-.9.9-1.4.9-.5,0-.9,0-1.3,0-3-.2-4.8-.5-4.8-.6Z"/>
                <path class="cls-3" d="M464,230.6s-14.3-1-27.2-11.2c0,0,5.2,15.4,26.6,16.2l.7-5Z"/>
              </g>
              <path class="cls-5" d="M461.5,175.5c-.5.7-3.2-.3-6.7-.7-3.4-.4-6.4-.1-6.7-.9-.1-.4.5-1,1.8-1.5,1.3-.5,3.2-.8,5.2-.6,2.1.3,3.8,1,4.9,1.8,1.1.8,1.6,1.5,1.4,1.9Z"/>
              <path class="cls-5" d="M487.5,169.6c-.5.7-2.5.1-5,.2-2.4,0-4.5.7-5,0-.2-.3,0-1,.9-1.7.9-.7,2.3-1.3,4-1.3,1.7,0,3.1.5,4,1.1.9.6,1.2,1.3,1,1.6Z"/>
            </g>
            <path class="cls-3" d="M459.5,201.3c1.3-.9,3-1.2,4.6-1,.8.1,1.6.5,2.1,1.1.7.8.8,2,.7,3.1,0,.6,0,1.3-.3,1.9-.2.6-.6,1.2-1.2,1.4-.6.3-1.3.2-2,.1-1.1-.2-2.2-.5-3.1-1.1s-1.6-1.6-1.7-2.7.5-2.3,1.5-2.7"/>
            <path class="cls-5" d="M467.4,207.7c-.2,0-.6-.6-1.3-1.4-.7-.9-1.8-2-3.2-2.8-1.4-.8-2.9-1.2-4.1-1.3-1.1-.2-1.9-.2-1.9-.4,0-.2.7-.6,1.9-.7,1.2-.1,3.1,0,4.8,1.1,1.7,1,2.9,2.4,3.4,3.6.5,1.2.6,2,.4,2Z"/>
          </g>
          <path class="cls-5" d="M416.7,227.9c6.9-1.4,12.3-7.4,14.7-14,2.4-6.7,2.3-14,1.6-21,0-.9-.2-1.9-1-2.5-1.1-.8-2.6-.2-3.7.5-4.4,2.7-8.6,5.6-12.6,8.8-3.7,3-7.4,6.4-8.8,11-2.2,7,2.4,15.3,9.5,17.2"/>
          <g>
            <path class="cls-2" d="M576.4,226.3l-32.8-52.7-9.1-18.5s-2.9-3.8-5.9-7.1c-4.9-5.4-9.8-1.2-9.8-1.2,0,0-.7-2.1-3.3-2-3.1,0-4.5,2.3-4.5,2.3,0,0-1.3-1.5-5.1-1.7-.8,0-1.6.3-2.4.8-1.2-1.1-3.5-2.6-5.6-1.8-1.7.6-11.9,8.4-14.4,12.3-1.2,1.9,1.1,4.4,4.2,3.3,1.4-.5,2.7-.9,3.7-1.5,1.7-1,2.5-2,2.5-2,0,0-2.6,4.5,0,5.3,1.1.3,3.3,0,4.8-1.2,1-.8,2.1-1.9,3.2-2.9,0,0,0,.1-.1.2-1.4,2.1,2.3,5.2,4.1,3.9.9-.6,1.7-1.3,2.4-1.9,4.2,3-1.6,6.9-4.1,6.7-3.8-.3-8.2-.3-11.3,0-2.1.2-4,.7-5.2,1.9-1.4,1.4,0,4.4,2,4.7,3.6.6,8.2,1.4,12.9,2.6,5.6,1.4,20.3,6.2,20.3,6.2l1.4,1.2,19.9,48.6-34.1,7.2-7.6,43.2,61.6-16.7c13.9-7.2,20.5-25.7,12.1-38.9Z"/>
            <path class="cls-3" d="M523.2,181.7s-.3,0-.8-.2c-.6-.2-1.3-.4-2.2-.6-2-.6-4.7-1.4-8.1-2.4-1.7-.5-3.6-1.1-5.6-1.7-2-.6-4.2-1.3-6.4-1.8-2.3-.6-4.7-1.2-7.2-1.5-1.2-.2-2.6,0-3.9-.7-.3-.2-.6-.4-.9-.7-.1-.2-.2-.3-.3-.5v-.5c-.2-.7-.2-1.4,0-2.1.2-.7.8-1.3,1.4-1.6.6-.3,1.3-.5,1.9-.8,1.3-.4,2.7-.5,4-.5,2.6,0,5,.4,7.4.3,1.2,0,2.3-.1,3.4-.3,1.1-.2,2.1-.5,3.1-.7,2-.5,4-.9,5.8-.7,1.8.2,3.4.7,4.7,1.2,1.3.5,2.4,1.1,3.3,1.6.9.5,1.5.9,2,1.2.4.3.7.4.7.5s-.3-.1-.7-.4c-.5-.3-1.2-.6-2-1.1-.9-.5-2-1-3.3-1.5-1.3-.5-2.9-1-4.6-1.1-1.8-.2-3.7.2-5.7.8-1,.3-2.1.6-3.2.8-1.1.2-2.3.3-3.5.4-2.4.1-4.9-.2-7.4-.3-1.3,0-2.6,0-3.8.5-1.2.4-2.6.8-3,2.1-.2.6-.2,1.3-.1,1.9v.5c0,0,.2.2.3.3.2.2.4.4.7.5,1.1.6,2.5.5,3.8.7,2.6.3,5,.9,7.3,1.5,2.3.6,4.4,1.3,6.4,1.9,2,.6,3.9,1.2,5.6,1.8,3.4,1.1,6.1,1.9,8.1,2.6.9.3,1.6.5,2.2.7.5.2.8.3.8.3Z"/>
            <path class="cls-3" d="M497.9,144.3c0,0-1.5,1-3.9,2.8-1.2.9-2.5,2-3.9,3.4-1.4,1.4-2.9,3-4.6,4.4-.8.7-1.7,1.5-1.8,2.5,0,.5,0,1,.2,1.3.2.4.6.7,1,.8.9.3,1.8.2,2.6,0,.8-.2,1.6-.4,2.3-.7,2.7-1.1,4-2.6,4.1-2.5,0,0-.3.4-.9.9-.6.5-1.6,1.3-3,1.9-.7.3-1.5.6-2.4.7-.9.2-1.9.3-2.9,0-.5-.2-1-.5-1.3-1-.3-.5-.4-1.1-.2-1.7.2-1.2,1.2-2,2-2.8,1.7-1.5,3.2-3,4.6-4.4,1.4-1.4,2.8-2.5,4-3.3,1.2-.9,2.2-1.5,3-1.9.7-.4,1.1-.6,1.2-.6Z"/>
            <path class="cls-3" d="M510.4,148.5s-.4.5-1.2,1.4c-.8.9-1.9,2.1-3.3,3.6-1.4,1.5-3.1,3.3-4.9,5.3-.9,1-2.1,2-3.5,2.6-.7.3-1.5.6-2.3.6-.8,0-1.7-.3-2.3-.9-.3-.3-.5-.8-.5-1.2,0-.4,0-.9.1-1.3.2-.8.6-1.5,1.1-2.2h0s0,0,0,0c1.8-1.9,3.4-3.6,4.9-5.3,1.5-1.6,2.9-2.9,4.1-4,.6-.5,1.1-1.1,1.7-1.4.6-.3,1.2-.3,1.6-.4.9,0,1.4,0,1.4.1,0,0-.5,0-1.3,0-.4,0-1,.1-1.5.4-.5.3-1,.8-1.6,1.4-1.1,1.1-2.6,2.5-4,4.1-1.4,1.6-3.1,3.4-4.8,5.3h0c-.4.6-.8,1.3-1,2,0,.4-.1.7-.1,1.1,0,.4.2.7.4,1,.5.5,1.2.7,1.9.8.7,0,1.4-.2,2.1-.5,1.3-.6,2.4-1.5,3.3-2.5,1.9-2,3.6-3.7,5-5.2,1.4-1.4,2.5-2.6,3.4-3.5.4-.4.7-.7.9-.9.2-.2.3-.3.4-.3Z"/>
            <path class="cls-3" d="M525.7,153.3c0,0,0,.3-.4.6-.3.3-1,.5-1.7.4-.7-.1-1.2-.6-1.4-.9-.2-.4-.2-.7-.2-.7,0,0,.2.2.5.5.3.3.7.6,1.2.7.5,0,1,0,1.4-.2.3-.2.5-.3.6-.3Z"/>
            <path class="cls-3" d="M526.9,157.9c-.1,0-.9-.7-1.5-1.8-.7-1.1-1-2.1-.8-2.2.1,0,.6.8,1.3,1.9.6,1.1,1.2,2,1.1,2Z"/>
            <path class="cls-3" d="M529.1,175.8c0,0-.5-.7-.9-2.1-.5-1.3-.8-3.3-.8-5.5,0-2.2.5-4.1,1-5.4.5-1.3,1-2.1,1-2.1.2,0-1.4,3.2-1.4,7.5,0,4.3,1.4,7.5,1.2,7.5Z"/>
            <path class="cls-3" d="M556,245.1c0,0-.2-1.1-.7-2.7-.3-.8-.7-1.8-1.2-2.7-.6-1-1.2-2-2.1-3-.9-1-1.8-1.8-2.7-2.5-.9-.7-1.8-1.2-2.6-1.5-1.5-.7-2.6-1-2.6-1.1,0,0,.3,0,.8,0,.5,0,1.2.3,2,.6.8.3,1.7.8,2.7,1.5.9.7,1.9,1.5,2.8,2.5.9,1,1.6,2.1,2.1,3.1.5,1,.9,2,1.1,2.9.2.8.3,1.5.4,2,0,.5,0,.8,0,.8Z"/>
          </g>
          <g>
            <path class="cls-2" d="M441.7,341.4c-4.4-.9-8.3,1.1-8.3,1.1-4.5-2-9.9,1.4-9.9,1.4-1.6-.8-11.3,5.6-11.3,5.6l-12.1,5.7-64.5-47.9,18.3-19-25.6-26.7-30,30.9c-3.7,3.9-5.6,9.1-6,14.5-.8,11.7,5.9,22.7,16.4,28l76,39s8.1-.3,17.3-2.7c6.6-1.7,17.8-6.7,17.8-6.7,0,0,0,.3,2,4.2,3.6,7,8.9-.6,8.9-.6,0,0,1.1,2.5,2.1,3.4,4.6,4.4,7.7-1.5,7.7-1.5,0,0,1.4,2.4,5.5.6,4.1-1.8-.6-14.1-.6-14.1,0,0,1.4,2.7,4-.7,2.7-3.4-3.2-13.7-7.5-14.6Z"/>
            <path class="cls-3" d="M432.5,343s.3-.2.8-.3c.6-.1,1.4-.2,2.4,0,1,.3,2.1.8,3.2,1.7.5.4,1.1.9,1.6,1.4.5.6.9,1.3,1.3,2,1.4,2.8,2.4,5.5,3,7.4.3,1,.5,1.8.6,2.3.1.6.2.9.1.9,0,0-.4-1.2-1.1-3.1-.7-1.9-1.7-4.5-3.1-7.3-.3-.7-.7-1.3-1.2-1.9-.5-.5-1-1-1.5-1.4-1-.8-2.1-1.4-3-1.7-1.9-.6-3.2,0-3.2-.1Z"/>
            <path class="cls-3" d="M440.3,370.2s-.2-.4-.6-1.1c-.4-.8-.9-1.8-1.4-3.1-1.2-2.6-2.9-6.1-4.6-10.2-.8-2-1.6-4-2.6-5.5-1-1.5-2.4-2.5-3.7-3.1-1.3-.6-2.4-.7-3.2-.6-.8.1-1.2.3-1.2.3,0,0,0,0,.3-.2.2-.1.5-.2.9-.3.8-.2,2-.1,3.4.4,1.3.5,2.8,1.6,4,3.2,1.1,1.6,1.9,3.5,2.7,5.5,1.7,4,3.3,7.6,4.4,10.2.6,1.3,1,2.4,1.3,3.1.3.7.4,1.2.4,1.2Z"/>
            <path class="cls-3" d="M410.7,354.7s.4-.2,1-.6c.8-.4,1.7-.8,2.9-1.4.6-.3,1.3-.6,2-.9.8-.3,1.7-.5,2.6-.4.9,0,1.9.4,2.7,1,.8.6,1.4,1.5,2,2.4.5.9,1,1.8,1.4,2.7.4.9.9,1.7,1.3,2.5.9,1.6,1.7,2.9,2.3,4.2.6,1.2,1,2.2,1.3,2.9.3.7.4,1.1.3,1.1,0,0-.6-1.6-1.9-3.9-.6-1.2-1.5-2.5-2.4-4.1-.4-.8-.9-1.6-1.3-2.5-.4-.9-.9-1.8-1.4-2.6-.5-.9-1.1-1.7-1.8-2.2-.7-.6-1.6-.9-2.5-1-.8,0-1.7,0-2.4.3-.7.3-1.4.6-2,.9-1.2.5-2.2.9-3,1.2-.7.3-1.1.4-1.1.4Z"/>
            <path class="cls-3" d="M412.1,349.4s-.3.2-.9.6c-.6.3-1.4.8-2.5,1.3-2.1,1.1-5,2.6-8.3,4.3-3.3,1.6-6.2,3.1-8.4,4.1-1.1.5-2,.9-2.6,1.2-.6.3-1,.4-1,.4,0,0,.3-.2.9-.6.6-.3,1.4-.8,2.5-1.3,2.1-1.1,5.1-2.6,8.3-4.3,3.3-1.6,6.2-3.1,8.4-4.1,1.1-.5,2-.9,2.6-1.2.6-.3,1-.4,1-.4Z"/>
            <path class="cls-3" d="M336.3,307.3c0,.2-3.4-.8-7.6-.2-4.2.5-7.3,2.2-7.4,2,0,0,.7-.5,2-1.1,1.3-.6,3.2-1.2,5.3-1.4,2.1-.3,4.1-.1,5.5.1,1.4.3,2.2.6,2.2.6Z"/>
          </g>
          <g>
            <path class="cls-5" d="M478.9,134.1c-16-.2-32,1.5-47.5,5-3.6.8-7.4,1.9-9.9,4.7-2.6,2.9-3,7.1-3.4,11-.4,4.8-.8,9.5-1.2,14.2-.7,1.2-1.5,2.3-2.3,3.4-3.8,4.9-8.5,9-12,14.2-3.4,5.2-5.3,12-2.5,17.5,1.7,3.3,4.8,5.7,7.1,8.7,3.9,5,5.1,11.5,7.4,17.4,2.3,5.9,6.3,12,12.6,13.2,3,.6,6.1,0,9,.4,4.5.7,8.2,3.6,11.8,6.4,3.6,2.8,7.4,5.6,11.9,6.1,4.5.4,9.6-2.6,9.7-7.1-3.3,1.9-7.7,1.8-10.9-.3-2.6-1.7-4.3-4.5-6.6-6.7-5.5-5.4-14.4-7.1-18.3-13.7-3-5.3-1.8-11.9-.5-17.8,1.2-5.1,2.4-10.7.9-15.7.1-.8.2-1.6.2-2.4,0-5.3-2-10.9.4-15.6,3.2-6.2,12.6-6.9,15.9-13.1,1.9-3.6,1.2-8.1,3.3-11.6,2-3.3,5.9-4.8,9.6-5.6,3.7-.8,7.6-1.2,10.9-3.1,3.3-1.9,5.7-6,4.2-9.5Z"/>
            <path class="cls-5" d="M491,241.4s0,0-.2.2c-.1.2-.3.4-.5.7-.4.6-1.2,1.4-2.3,2.3-1.1.9-2.6,1.8-4.6,2.4-1.9.7-4.3,1.1-6.8.8-2.5-.2-5.3-1.2-7.7-3.1-2.4-1.8-4.5-4.3-7.2-6.2-1.3-.9-2.9-1.7-4.6-1.9-1.7-.2-3.4.2-5.1.9-1.7.7-3.4,1.5-5.3,1.8-1.9.3-3.9-.1-5.7-1-1.8-.9-3.3-2-4.8-3.2-1.5-1.2-2.9-2.3-4.2-3.7-1.3-1.3-2.4-2.8-3-4.5-.7-1.7-.7-3.5-.3-5.2.3-1.7.9-3.2,1.5-4.7.6-1.5,1.1-2.9,1.5-4.3.9-2.8,1.5-5.5,1.8-8,.8-5,.8-9.1.6-11.9,0-1.4-.2-2.5-.2-3.2,0-.3,0-.6,0-.8,0-.2,0-.3,0-.3s0,0,0,.3c0,.2,0,.5.1.8.1.7.2,1.8.3,3.2.2,2.8.3,7-.5,12-.4,2.5-.9,5.2-1.8,8.1-.4,1.4-.9,2.9-1.5,4.4-.6,1.5-1.2,3-1.5,4.6-.3,1.6-.3,3.3.3,4.9.6,1.6,1.7,3.1,2.9,4.3,1.2,1.3,2.7,2.5,4.2,3.6,1.5,1.1,3,2.3,4.7,3.1,1.7.8,3.6,1.3,5.4,1,1.8-.3,3.5-1.1,5.2-1.8,1.7-.7,3.5-1.2,5.3-.9,1.8.2,3.4,1,4.8,2,2.7,2,4.8,4.4,7.2,6.2,2.3,1.9,4.9,2.9,7.4,3.1,2.5.3,4.8,0,6.7-.7,1.9-.6,3.4-1.5,4.5-2.3,2.2-1.7,3-3.2,3.1-3.1Z"/>
            <path class="cls-4" d="M391.1,209.6s-.3-.4-.8-1.1c-.5-.8-1.1-2-1.4-3.6-.4-1.7-.4-3.8,0-6.2.5-2.4,1.6-5,3.5-7.4,1.8-2.4,4.3-4.7,7.2-6.8,2.9-2.1,6.1-4.1,9.4-6.4,3.2-2.3,6.5-5,8.9-8.6,1.2-1.8,2.1-3.8,2.7-6,.6-2.1,1.1-4.4,1.6-6.6.5-2.3,1.1-4.5,2-6.6.9-2.1,2.2-4,3.9-5.4,1.7-1.4,3.7-2.5,5.7-3.1,2-.7,4.1-1,6.1-1.2,4-.3,7.9,0,11.4.4,3.5.3,6.9.5,9.9.1,3-.3,5.6-1.2,7.7-2.3,2.1-1.1,3.7-2.5,4.7-3.8,1.1-1.3,1.6-2.5,1.9-3.3.3-.8.4-1.3.4-1.3,0,0,0,.5-.3,1.3-.3.9-.8,2.1-1.9,3.4-1,1.4-2.6,2.8-4.8,3.9-2.1,1.2-4.8,2.1-7.8,2.4-3,.4-6.4.2-9.9,0-3.6-.2-7.4-.7-11.3-.3-2,.2-4,.5-6,1.2-2,.6-3.9,1.6-5.5,3-1.6,1.4-2.9,3.2-3.8,5.3-.9,2-1.5,4.2-2,6.5-.5,2.2-1,4.5-1.6,6.7-.7,2.2-1.5,4.3-2.8,6.1-2.4,3.7-5.8,6.4-9,8.8-3.3,2.3-6.5,4.3-9.4,6.4-2.9,2.1-5.3,4.3-7.2,6.7-1.9,2.4-2.9,4.9-3.5,7.3-.5,2.3-.5,4.4-.2,6.1.7,3.3,2.1,4.7,2,4.8Z"/>
            <path class="cls-4" d="M394,214.8s-1.2-.9-3.1-2.9c-.9-1-2-2.4-2.7-4.2-.3-.9-.6-2-.5-3.1.1-1.1.6-2.3,1.3-3.3,1.6-2,4.3-3.1,7.1-3.6,1.4-.3,2.9-.5,4.4-.9,1.5-.4,3-.9,4.3-1.8,1.3-.9,2.3-2.2,3.1-3.7.8-1.5,1.3-3.1,1.9-4.8.6-1.7,1.2-3.4,2-5,.8-1.6,2.1-3.1,3.8-4.2,1.6-1,3.4-1.6,5.2-2,1.8-.5,3.5-.8,5.2-1.4,3.3-1,6-3.3,7.9-5.8,2-2.5,3.5-5.2,4.9-7.7,1.4-2.5,2.9-4.8,4.5-6.7,1.6-1.9,3.4-3.3,5.1-4.2,1.7-.9,3.4-1.3,4.8-1.4,1.4-.1,2.5,0,3.2.3.7.2,1,.4,1,.4,0,0-.4-.1-1.1-.3-.7-.2-1.8-.3-3.1-.2-1.3.2-3,.6-4.7,1.5-1.7.9-3.4,2.3-5,4.2-1.6,1.9-3,4.1-4.4,6.6-1.4,2.5-2.9,5.2-4.9,7.8-1,1.3-2.2,2.5-3.5,3.6-1.3,1.1-2.9,1.9-4.6,2.5-1.7.6-3.5,1-5.2,1.4-1.7.5-3.5,1-5.1,2-1.6,1-2.7,2.4-3.6,4-.8,1.6-1.4,3.3-2,4.9-.6,1.7-1.1,3.3-2,4.8-.8,1.5-1.9,2.9-3.3,3.8-1.4.9-2.9,1.5-4.4,1.8-1.5.4-3,.6-4.4.9-2.8.6-5.4,1.6-6.9,3.5-.7.9-1.2,2-1.3,3.1-.1,1.1,0,2.1.4,3,.7,1.8,1.7,3.2,2.5,4.2.9,1,1.6,1.8,2.1,2.3.2.2.4.4.6.6.1.1.2.2.2.2Z"/>
          </g>
        </g>
        <path class="cls-3" d="M517.1,150.2s-.2.3-.5.8c-.4.5-.9,1.2-1.6,2-1.4,1.6-3.3,3.8-5.6,6.1-1.1,1.1-2.2,2.4-3.7,2.8-.7.2-1.5.2-2.1,0-.6-.3-1.1-.8-1.4-1.2-.5-1-.4-2-.4-2.5,0-.6.2-.9.2-.9,0,0,0,.3,0,.9,0,.6,0,1.5.5,2.3.3.4.7.8,1.2,1,.5.2,1.2.2,1.8,0,1.3-.4,2.3-1.6,3.5-2.7,2.3-2.3,4.3-4.5,5.7-6,1.4-1.6,2.3-2.5,2.4-2.5Z"/>
        <path class="cls-3" d="M524.7,150.2s-.2.3-.6.8-1,1.2-1.8,2c-.8.9-1.7,1.8-2.7,2.9-.5.5-1,1.1-1.6,1.7-.6.6-1.2,1.2-1.9,1.7-.7.5-1.6.9-2.4,1-.9,0-1.8-.3-2.3-1-.2-.3-.4-.8-.4-1.2,0-.4.2-.8.3-1.1.4-.6.7-1.1,1.1-1.5.7-.9,1.2-1.6,1.6-2.1.4-.5.6-.8.6-.7,0,0-.1.3-.5.9-.3.5-.8,1.3-1.5,2.2-.3.5-.7,1-1,1.5-.3.5-.4,1.2,0,1.7.4.5,1.1.8,1.8.8.7,0,1.5-.4,2.2-.9.7-.5,1.3-1.1,1.8-1.7.6-.6,1.1-1.1,1.6-1.7,1-1,1.9-2,2.8-2.8.8-.8,1.4-1.4,1.9-1.9s.7-.7.7-.6Z"/>
      </g>
      <g>
        <g>
          <path class="cls-9" d="M504.6,132l8-14.5c-3.7-5.8-5.8-12.7-5.9-20.1-.2-21.3,16.9-38.7,38.2-38.9,21.3-.2,38.7,16.9,38.9,38.2.2,21.3-16.9,38.7-38.2,38.9-8.9,0-17.1-2.9-23.7-7.8h0s-17.4,4.3-17.4,4.3Z"/>
          <path class="cls-5" d="M504.6,132c.9-.2,6.3-1.6,17.4-4.4v.2c0,0,0,0,0,0l-.6-.8.8.6c2.2,1.7,4.9,3.3,7.9,4.6,3.1,1.3,6.6,2.4,10.5,2.8,1.9.2,4,.4,6.1.2,1,0,2.1-.1,3.2-.2,1.1-.2,2.1-.3,3.2-.5,4.3-.9,8.7-2.6,12.8-5.2,4.1-2.6,7.9-6.1,10.9-10.4,3-4.3,5.3-9.3,6.3-14.8,1-5.5.9-11.3-.6-16.9-1.5-5.6-4.2-11.1-8.3-15.6l-1.6-1.7c-.5-.6-1.1-1-1.7-1.6-.6-.5-1.1-1.1-1.7-1.5l-1.8-1.3c-.6-.5-1.3-.9-1.9-1.2l-1.9-1.2c-.7-.3-1.4-.6-2-1-.7-.3-1.3-.7-2-.9-5.5-2.1-11.5-2.9-17.1-2.5-5.6.5-11,2.1-15.6,4.8-4.6,2.6-8.5,6.1-11.5,10-3,3.9-5.1,8.2-6.4,12.4-1.3,4.3-1.6,8.5-1.6,12.4.3,7.9,2.9,14.4,5.8,19h0c0,0,0,.1,0,.1-5.2,9.2-7.7,13.7-8.1,14.4.4-.8,2.9-5.3,7.9-14.5h0c-2.9-4.5-5.6-11-5.9-18.9,0-4,.3-8.2,1.6-12.6,1.3-4.3,3.4-8.6,6.5-12.6,3-3.9,7-7.5,11.6-10.1,4.7-2.7,10.1-4.4,15.8-4.8,5.7-.5,11.7.3,17.3,2.5.7.2,1.4.6,2.1.9.7.3,1.4.6,2.1,1l2,1.2c.7.4,1.3.8,1.9,1.2l1.9,1.4c.6.4,1.2,1,1.8,1.5.6.5,1.2,1,1.7,1.6l1.6,1.7c4.1,4.5,6.9,10.1,8.4,15.8,1.5,5.7,1.7,11.6.6,17.2-1,5.5-3.3,10.6-6.4,15-3,4.3-6.9,7.9-11,10.5-4.1,2.6-8.6,4.3-12.9,5.2-1.1.2-2.2.4-3.3.5-1.1.1-2.1.1-3.2.2-2.1.1-4.1,0-6.1-.3-3.9-.5-7.5-1.6-10.6-2.9-3.1-1.4-5.8-3-8-4.7l.2-.2h0s.1.2.1.2h-.2c-11.1,2.7-16.5,4-17.4,4.2Z"/>
        </g>
        <g>
          <path class="cls-1" d="M534.6,90.4h5s0-4.3,4.3-4.4c2.3,0,3.5,1.4,4,2.6.6,1.3.4,2.8-.3,4.1-.8,1.4-2.7,2.7-6.1,2.1v11.3c.1,0,5.1,0,5.1,0v-6.6c0,0,6.9-1.9,6.8-9.5,0-7.3-6.7-9-9.5-8.9-2.2,0-9.5.6-9.3,9.5Z"/>
          <rect class="cls-1" x="541.6" y="108.4" width="5" height="4.7" transform="translate(-1 5.2) rotate(-.5)"/>
        </g>
      </g>
    </g>
  </g>
</svg>